# Blender v2.79 (sub 0) OBJ File: 'wisp_core_ring.blend'
# www.blender.org
mtllib wisp_core_ring.mtl
o Torus
v 0.554328 -0.229610 0.000000
v 0.461940 -0.191342 0.100000
v 0.369552 -0.153073 0.000000
v 0.461940 -0.191342 -0.100000
v 0.554328 0.229610 0.000000
v 0.461940 0.191342 0.100000
v 0.369552 0.153073 0.000000
v 0.461940 0.191342 -0.100000
v 0.229610 0.554328 0.000000
v 0.191342 0.461940 0.100000
v 0.153073 0.369552 0.000000
v 0.191342 0.461940 -0.100000
v -0.229610 0.554328 0.000000
v -0.191342 0.461940 0.100000
v -0.153073 0.369552 0.000000
v -0.191342 0.461940 -0.100000
v -0.554328 0.229610 0.000000
v -0.461940 0.191342 0.100000
v -0.369552 0.153073 0.000000
v -0.461940 0.191342 -0.100000
v -0.554328 -0.229610 -0.000000
v -0.461940 -0.191342 0.100000
v -0.369552 -0.153073 -0.000000
v -0.461940 -0.191342 -0.100000
v -0.229610 -0.554328 -0.000000
v -0.191342 -0.461940 0.100000
v -0.153073 -0.369552 -0.000000
v -0.191342 -0.461940 -0.100000
v 0.229610 -0.554328 -0.000000
v 0.191341 -0.461940 0.100000
v 0.153073 -0.369552 -0.000000
v 0.191341 -0.461940 -0.100000
vt 0.000000 0.250000
vt 1.000000 0.250000
vt 1.000000 0.500000
vt 0.000000 0.500000
vt 0.000000 0.000000
vt 1.000000 0.000000
vt 1.000000 0.250000
vt 0.000000 0.250000
vt 0.000000 0.000000
vt 1.000000 0.000000
vt 1.000000 0.250000
vt 0.000000 0.250000
vt 1.000000 0.500000
vt 0.000000 0.500000
vt 0.000000 0.750000
vt 1.000000 0.750000
vt 1.000000 1.000000
vt 0.000000 1.000000
vt 0.000000 0.500000
vt 1.000000 0.500000
vt 1.000000 0.750000
vt 0.000000 0.750000
vt 0.000000 0.500000
vt 1.000000 0.500000
vt 1.000000 0.750000
vt 0.000000 0.750000
vt 1.000000 1.000000
vt 0.000000 1.000000
vt 0.000000 0.250000
vt 1.000000 0.250000
vt 1.000000 0.500000
vt 0.000000 0.500000
vt 0.000000 0.000000
vt 1.000000 0.000000
vt 1.000000 0.250000
vt 0.000000 0.250000
vt 0.000000 0.000000
vt 1.000000 0.000000
vt 1.000000 0.250000
vt 0.000000 0.250000
vt 1.000000 0.500000
vt 0.000000 0.500000
vt 0.000000 0.750000
vt 1.000000 0.750000
vt 1.000000 1.000000
vt 0.000000 1.000000
vt 0.000000 0.500000
vt 1.000000 0.500000
vt 1.000000 0.750000
vt 0.000000 0.750000
vt 0.000000 0.500000
vt 1.000000 0.500000
vt 1.000000 0.750000
vt 0.000000 0.750000
vt 1.000000 1.000000
vt 0.000000 1.000000
vt 0.000000 0.250000
vt 1.000000 0.250000
vt 1.000000 0.500000
vt 0.000000 0.500000
vt 0.000000 0.000000
vt 1.000000 0.000000
vt 1.000000 0.250000
vt 0.000000 0.250000
vt 0.000000 0.000000
vt 1.000000 0.000000
vt 1.000000 0.250000
vt 0.000000 0.250000
vt 1.000000 0.500000
vt 0.000000 0.500000
vt 0.000000 0.750000
vt 1.000000 0.750000
vt 1.000000 1.000000
vt 0.000000 1.000000
vt 0.000000 0.500000
vt 1.000000 0.500000
vt 1.000000 0.750000
vt 0.000000 0.750000
vt 0.000000 0.500000
vt 1.000000 0.500000
vt 1.000000 0.750000
vt 0.000000 0.750000
vt 1.000000 1.000000
vt 0.000000 1.000000
vt 0.000000 0.250000
vt 1.000000 0.250000
vt 1.000000 0.500000
vt 0.000000 0.500000
vt 0.000000 0.000000
vt 1.000000 0.000000
vt 1.000000 0.250000
vt 0.000000 0.250000
vt 0.000000 0.000000
vt 1.000000 0.000000
vt 1.000000 0.250000
vt 0.000000 0.250000
vt 1.000000 0.500000
vt 0.000000 0.500000
vt 0.000000 0.750000
vt 1.000000 0.750000
vt 1.000000 1.000000
vt 0.000000 1.000000
vt 0.000000 0.500000
vt 1.000000 0.500000
vt 1.000000 0.750000
vt 0.000000 0.750000
vt 0.000000 0.500000
vt 1.000000 0.500000
vt 1.000000 0.750000
vt 0.000000 0.750000
vt 1.000000 1.000000
vt 0.000000 1.000000
vn 0.7345 -0.0000 0.6786
vn -0.7345 -0.0000 0.6786
vn -0.7345 0.0000 -0.6786
vn 0.7345 0.0000 -0.6786
vn 0.5194 0.5194 0.6786
vn -0.5194 -0.5194 0.6786
vn -0.5194 -0.5194 -0.6786
vn 0.5194 0.5194 -0.6786
vn -0.0000 0.7345 0.6786
vn 0.0000 -0.7345 0.6786
vn 0.0000 -0.7345 -0.6786
vn -0.0000 0.7345 -0.6786
vn -0.5194 0.5194 0.6786
vn 0.5194 -0.5194 0.6786
vn 0.5194 -0.5194 -0.6786
vn -0.5194 0.5194 -0.6786
usemtl None
s off
f 1/1/1 5/2/1 6/3/1 2/4/1
f 2/5/2 6/6/2 7/7/2 3/8/2
f 3/9/3 7/10/3 8/11/3 4/12/3
f 4/12/4 8/11/4 5/13/4 1/14/4
f 5/15/5 9/16/5 10/17/5 6/18/5
f 6/19/6 10/20/6 11/21/6 7/22/6
f 7/23/7 11/24/7 12/25/7 8/26/7
f 8/26/8 12/25/8 9/27/8 5/28/8
f 9/29/9 13/30/9 14/31/9 10/32/9
f 10/33/10 14/34/10 15/35/10 11/36/10
f 11/37/11 15/38/11 16/39/11 12/40/11
f 12/40/12 16/39/12 13/41/12 9/42/12
f 13/43/13 17/44/13 18/45/13 14/46/13
f 14/47/14 18/48/14 19/49/14 15/50/14
f 15/51/15 19/52/15 20/53/15 16/54/15
f 16/54/16 20/53/16 17/55/16 13/56/16
f 17/57/2 21/58/2 22/59/2 18/60/2
f 18/61/1 22/62/1 23/63/1 19/64/1
f 19/65/4 23/66/4 24/67/4 20/68/4
f 20/68/3 24/67/3 21/69/3 17/70/3
f 21/71/6 25/72/6 26/73/6 22/74/6
f 22/75/5 26/76/5 27/77/5 23/78/5
f 23/79/8 27/80/8 28/81/8 24/82/8
f 24/82/7 28/81/7 25/83/7 21/84/7
f 25/85/10 29/86/10 30/87/10 26/88/10
f 26/89/9 30/90/9 31/91/9 27/92/9
f 27/93/12 31/94/12 32/95/12 28/96/12
f 28/96/11 32/95/11 29/97/11 25/98/11
f 29/99/14 1/100/14 2/101/14 30/102/14
f 30/103/13 2/104/13 3/105/13 31/106/13
f 31/107/16 3/108/16 4/109/16 32/110/16
f 32/110/15 4/109/15 1/111/15 29/112/15
